<?xml version="1.0" encoding="UTF-8"?>
<svg id="Layer_1" xmlns="http://www.w3.org/2000/svg" version="1.1" viewBox="0 0 512 512">
  <!-- Generator: Adobe Illustrator 29.3.1, SVG Export Plug-In . SVG Version: 2.1.0 Build 151)  -->
  <g id="Laptop">
    <path d="M296,432h-16v-78.4c0-4.4-3.6-8-8-8s-8,3.6-8,8v78.4H56v-160h66.6c4.4,0,8-3.6,8-8s-3.6-8-8-8H48c-4.4,0-8,3.6-8,8v168h-16c-4.4,0-8,3.6-8,8v16c0,22.1,17.9,40,40,40h208c22.1,0,40-17.9,40-40v-16c0-4.4-3.6-8-8-8ZM288,456c0,13.3-10.7,24-24,24h-16v-8c0-4.4-3.6-8-8-8s-8,3.6-8,8v8H88v-8c0-4.4-3.6-8-8-8s-8,3.6-8,8v8h-16c-13.3,0-24-10.7-24-24v-8h256v8Z"/>
  </g>
  <g id="FB">
    <path d="M432,64h16c4.4,0,8-3.6,8-8s-3.6-8-8-8h-16c-13.3,0-24,10.7-24,24v8h-8c-4.4,0-8,3.6-8,8s3.6,8,8,8h8v24c0,4.4,3.6,8,8,8s8-3.6,8-8v-24h8c4.4,0,8-3.6,8-8s-3.6-8-8-8h-8v-8c0-4.4,3.6-8,8-8Z"/>
    <path d="M472,16h-96c-13.3,0-24,10.7-24,24v16c0,4.4,3.6,8,8,8s8-3.6,8-8v-16c0-4.4,3.6-8,8-8h96c4.4,0,8,3.6,8,8v96c0,4.4-3.6,8-8,8h-96c-4.4,0-8-3.6-8-8v-48c0-4.4-3.6-8-8-8s-8,3.6-8,8v48c0,13.3,10.7,24,24,24h96c13.3,0,24-10.7,24-24V40c0-13.3-10.7-24-24-24Z"/>
  </g>
  <g id="Insta">
    <path d="M392,336c0,17.7,14.3,32,32,32s32-14.3,32-32-14.3-32-32-32-32,14.3-32,32ZM440,336c0,8.8-7.2,16-16,16s-16-7.2-16-16,7.2-16,16-16,16,7.2,16,16Z"/>
    <path d="M472,264h-96c-13.3,0-24,10.7-24,24v96c0,13.3,10.7,24,24,24h96c13.3,0,24-10.7,24-24v-16c0-4.4-3.6-8-8-8s-8,3.6-8,8v16c0,4.4-3.6,8-8,8h-96c-4.4,0-8-3.6-8-8v-96c0-4.4,3.6-8,8-8h96c4.4,0,8,3.6,8,8v48c0,4.4,3.6,8,8,8s8-3.6,8-8v-48c0-13.3-10.7-24-24-24Z"/>
  </g>
  <g id="Play">
    <path d="M195.8,110.8c1.3.8,2.7,1.2,4.2,1.2,1.3,0,2.5-.3,3.6-.9l48-24c3.9-2,5.5-6.8,3.5-10.8-.8-1.5-2-2.7-3.5-3.5l-48-24c-3.9-2-8.8-.4-10.7,3.5-.6,1.1-.9,2.3-.9,3.6v48c0,2.8,1.4,5.3,3.8,6.8ZM208,69l22.1,11-22.1,11v-22.1Z"/>
    <path d="M216,152c39.8,0,72-32.2,72-72S255.8,8,216,8s-72,32.2-72,72,32.2,72,72,72ZM216,24c30.9,0,56,25.1,56,56s-25.1,56-56,56-56-25.1-56-56,25.1-56,56-56Z"/>
  </g>
  <g id="Doc">
    <path d="M24,232h96c4.4,0,8-3.6,8-8V96c0-4.4-3.6-8-8-8H24c-4.4,0-8,3.6-8,8v128c0,4.4,3.6,8,8,8ZM32,104h80v112H32v-112Z"/>
    <path d="M88,120h-16c-4.4,0-8,3.6-8,8s3.6,8,8,8h16c4.4,0,8-3.6,8-8s-3.6-8-8-8Z"/>
    <path d="M88,152h-32c-4.4,0-8,3.6-8,8s3.6,8,8,8h32c4.4,0,8-3.6,8-8s-3.6-8-8-8Z"/>
    <path d="M88,184h-32c-4.4,0-8,3.6-8,8s3.6,8,8,8h32c4.4,0,8-3.6,8-8s-3.6-8-8-8Z"/>
  </g>
  <g id="LoudSpeaker">
    <path d="M296,184c2.5,0,4.9-1.2,6.4-3.2l24-32c2.6-3.5,1.9-8.6-1.6-11.2-3.5-2.6-8.5-1.9-11.2,1.6l-24,32c-2.7,3.5-1.9,8.5,1.6,11.2,1.4,1,3.1,1.6,4.8,1.6Z"/>
    <path d="M313.6,212.8c1.5,2,3.9,3.2,6.4,3.2s3.4-.6,4.8-1.6l32-24c3.5-2.7,4.3-7.7,1.6-11.2-2.7-3.5-7.7-4.3-11.2-1.6l-32,24c-3.5,2.7-4.3,7.7-1.6,11.2h0Z"/>
    <path d="M392,230.4c-.8-4.3-4.9-7.2-9.3-6.5-.1,0-.2,0-.3,0l-40,8c-4.4.4-7.6,4.4-7.2,8.8.4,4.4,4.4,7.6,8.8,7.2h1.6l40-8c4.3-.8,7.2-4.9,6.5-9.3,0-.1,0-.2,0-.3Z"/>
    <path d="M289,229.6c-2.2-3.8-7.1-5.2-11-3-3.8,2.2-5.2,7.1-3,11l35.3,61-128,48h-1.2l-20.8,12-13.8,8c-3.7,2.1-8.1,2.7-12.2,1.6-4.1-1.1-7.6-3.8-9.7-7.4l-16-27.7c-3.9-7.5-1.3-16.8,6-21.1l27.7-16,20,34.6c1.4,2.5,4.1,4,7,4,4.4,0,8-3.5,8-8,0-1.4-.4-2.8-1.1-4l-20.6-35.7,100.4-82.8,3.3,5.7c2.2,3.8,7.1,5.2,11,3,3.8-2.2,5.2-7.1,3-11l-8-13.8c-1.2-2-3.2-3.4-5.5-3.8-2.3-.4-4.7.2-6.6,1.7l-112,92.3-34.1,19.7c-12.6,7.3-18.6,22.2-14.7,36.2l-8,4.6c-11.5,6.6-15.5,21.3-8.9,32.8,3.2,5.5,8.4,9.6,14.6,11.2,2,.5,4.1.8,6.2.8,4.2,0,8.3-1.1,12-3.2l8-4.6c3.8,4,8.7,6.8,14,8.3,2.7.8,5.6,1.1,8.4,1.1,5.6,0,11.1-1.5,16-4.3l7-4,16,27.8c6.6,11.4,21.3,15.4,32.7,8.8,11.5-6.6,15.4-21.3,8.8-32.8h0s-14.6-25.4-14.6-25.4l120-45c2.2-.8,3.9-2.6,4.7-4.8.8-2.2.6-4.6-.6-6.6l-39.8-69.1ZM100,366.3c-1.8,1.1-4,1.4-6.1.8-2-.5-3.8-1.9-4.9-3.7-1.1-1.8-1.4-4-.8-6.1.6-2.1,1.9-3.8,3.8-4.9l7-4,8,13.8-7,4ZM205.3,388.7c1.1,1.8,1.4,4,.8,6.1-.6,2-1.9,3.8-3.8,4.8-3.8,2.2-8.7.9-10.9-2.9l-16-27.8,13.3-7.6h.6l15.9,27.4Z"/>
  </g>
</svg>