<?xml version="1.0" encoding="UTF-8"?>
<svg id="svg31911" xmlns="http://www.w3.org/2000/svg" version="1.1" xmlns:svg="http://www.w3.org/2000/svg" viewBox="0 0 512 512">
  <!-- Generator: Adobe Illustrator 29.3.1, SVG Export Plug-In . SVG Version: 2.1.0 Build 151)  -->
  <g id="Window">
    <path d="M96,296V96h320v200c-.2,10.9,16.2,10.9,16,0V40c0-13.2-10.8-24-24-24H104c-13.2,0-24,10.8-24,24v256c0,10.7,16,10.7,16,0ZM96,40c0-4.6,3.4-8,8-8h304c4.6,0,8,3.4,8,8v40H96v-40Z"/>
    <circle cx="120" cy="56" r="8"/>
    <circle cx="152" cy="56" r="8"/>
    <circle cx="184" cy="56" r="8"/>
    <path d="M392,48h-96.4c-10.8.7-10.1,16.3.4,16h96c10.4-.2,10.4-15.8,0-16Z"/>
  </g>
  <g id="Brackets">
    <path d="M272.4,133.5l-48,144c-3.4,10.1,11.8,15.2,15.2,5.1l48-144c1.8-5.2-2-10.6-7.5-10.6-3.5,0-6.6,2.3-7.7,5.6Z"/>
    <path d="M325.1,254.1l48-40c3.8-3.2,3.8-9.1,0-12.3l-48-40c-1.4-1.2-3.3-1.9-5.5-1.9-7.6.7-10.3,9.7-4.7,14.2h0s40.6,33.9,40.6,33.9l-40.6,33.8c-8.7,6.8,2,19.6,10.3,12.3Z"/>
    <path d="M191.8,159.9h0c-1.8,0-3.5.7-4.9,1.9l-48,40c-3.8,3.2-3.8,9.1,0,12.3l48,40c8.3,7.7,19.3-5.6,10.2-12.3l-40.6-33.8,40.6-33.9c5.9-4.8,2.3-14.4-5.3-14.2Z"/>
  </g>
  <g id="PC">
    <path d="M472,64h-16c-10.9-.2-10.9,16.2,0,16h16c4.6,0,8,3.4,8,8v232H32V88c0-4.6,3.5-8,8-8h15.9c10.9.2,10.9-16.2,0-16h-15.9c-13.2,0-24,10.8-24,24v288c0,13.2,10.9,24,24,24h432c13.2,0,24-10.8,24-24V88c0-13.2-10.8-24-24-24ZM480,376c0,4.6-3.4,8-8,8H40c-4.6,0-8-3.4-8-8v-40s448,0,448,0v40Z"/>
    <path d="M240,368h32c11,1,11.9-15.7.4-16h-32.8c-10.2,1.2-9.5,15.7.4,16Z"/>
    <path d="M344,448h-13c-11.9-10-18.8-19.6-22.7-27.9-1.4-3-4.4-4.9-7.7-4.7-5.7.3-9.3,6.3-6.8,11.5,3.1,6.7,7.9,13.9,14.3,21.1h-104.3c6.4-7.3,11.2-14.5,14.3-21.1,2.5-5.2-1.2-11.4-7-11.5-3.2,0-6.2,1.8-7.5,4.7-3.9,8.3-10.8,17.9-22.7,27.9h-13c-13.2,0-24,10.9-24,24v15.9c0,4.4,3.6,8,8,8h208c4.4,0,8-3.6,8-8v-15.9c0-13.2-10.9-24-24-24ZM352,480h-192v-8c0-4.6,3.4-8,8-8h0,176c4.6,0,8,3.5,8,8v8Z"/>
  </g>
</svg>