<?xml version="1.0" encoding="UTF-8"?>
<svg id="Layer_1" xmlns="http://www.w3.org/2000/svg" version="1.1" viewBox="0 0 512 512">
  <!-- Generator: Adobe Illustrator 29.3.1, SVG Export Plug-In . SVG Version: 2.1.0 Build 151)  -->
  <defs>
    <style>
      .st0 {
        fill: #fff;
      }
    </style>
  </defs>
  <path id="PC" d="M476.1,64.8h-139.5,0s-291.2,0-291.2,0c-25,0-45.3,20.3-45.3,45.3v282.4c0,25,20.3,45.3,45.3,45.3h140.4c1.7,15.3.6,33.6-3,51.5h-56.3c-5.5,0-10,4.5-10,10s4.5,10,10,10h259.1c5.5,0,10-4.5,10-10s-4.5-10-10-10h-56.9c-3.9-18-5.2-36.4-3.5-51.5h141.5c25,0,45.3-20.3,45.3-45.3V100.8c0-19.8-16.1-36-35.9-36ZM203.2,489.4c3.2-17.8,4.2-35.8,2.7-51.5h99.2c-1.4,15.5-.3,33.6,3.2,51.5h-105.1ZM492,392.5c0,14-11.4,25.3-25.3,25.3H45.3c-14,0-25.3-11.4-25.3-25.3v-24.9h472v24.9ZM492,347.6H20V110.1c0-14,11.4-25.3,25.3-25.3h281.5s149.2,0,149.2,0c8.8,0,15.9,7.2,15.9,16v246.9Z"/>
  <g id="Pencil">
    <rect class="st0" x="125.7" y="120.5" width="163.9" height="49.9" transform="translate(-22.2 252.5) rotate(-60)"/>
    <polygon class="st0" points="141.4 260.2 171.9 242.5 141.4 224.9 141.4 260.2"/>
    <path class="st0" d="M278.1,23.3c-11.9-6.9-27.2-2.8-34,9.1l-7.1,12.3,43.2,24.9,7.1-12.3c6.9-11.9,2.8-27.2-9.1-34Z"/>
    <path d="M288.1,6c-21.5-12.4-49-5-61.4,16.4l-22.9,39.7-11.5,20-69.5,120.5c-.9,1.5-1.3,3.2-1.3,5v69.9c0,5.5,4.5,10,10,10h.9l36.4-20,28.2-16.3c1.5-.9,2.8-2.1,3.7-3.7l95.5-165.4,11.1-20c8.5-20.5.7-44.7-19-56.1ZM141.4,260.2v-35.2l30.5,17.6-30.5,17.6ZM188.2,228.9l-43.2-24.9L227,62l43.2,24.9-81.9,141.9ZM287.3,57.4l-7.1,12.3-43.2-24.9,7.1-12.3c6.9-11.9,22.1-16,34-9.1,11.9,6.9,16,22.1,9.1,34Z"/>
  </g>
  <g id="Lines">
    <path d="M267,219.6c0,5.5,4.5,10,10,10h103.6c5.5,0,10-4.5,10-10s-4.5-10-10-10h-103.6c-5.5,0-10,4.5-10,10Z"/>
    <path d="M380.6,290.1c5.7,0,10.3-4.8,10-10.6s-5-9.4-10.4-9.4h-248.8c-5.5,0-10,4.5-10,10h0c0,5.5,4.5,10,10,10h249.2Z"/>
  </g>
</svg>