<?xml version="1.0" encoding="UTF-8"?>
<svg id="Online_Store" xmlns="http://www.w3.org/2000/svg" version="1.1" viewBox="0 0 512 512">
  <!-- Generator: Adobe Illustrator 29.3.1, SVG Export Plug-In . SVG Version: 2.1.0 Build 151)  -->
  <defs>
    <style>
      .st0 {
        fill: #fff;
      }

      .st1 {
        fill: none;
      }
    </style>
  </defs>
  <g id="Cart">
    <path d="M237.7,355.1c-10.8,0-19.6,8.8-19.6,19.6s8.8,19.6,19.6,19.6,19.6-8.8,19.6-19.6-8.8-19.6-19.6-19.6ZM234.6,374.8c0-1.7,1.4-3.1,3.1-3.1s3.1,1.4,3.1,3.1c0,3.4-6.2,3.4-6.2,0Z"/>
    <path d="M311.5,355.1c-10.8,0-19.6,8.8-19.6,19.6s8.8,19.6,19.6,19.6,19.6-8.8,19.6-19.6-8.8-19.6-19.6-19.6ZM308.4,374.8c0-1.7,1.4-3.1,3.1-3.1s3.1,1.4,3.1,3.1c0,3.4-6.2,3.4-6.2,0Z"/>
    <path d="M358,198.5h-187.6l-4.9-18.3c-2.5-9.3-10.9-15.8-20.5-15.8h-12.3c-4.6,0-8.3,3.7-8.3,8.3s3.7,8.3,8.3,8.3h12.3c2.1,0,4,1.4,4.6,3.5l39.4,147.5c2.9,10.8,12.7,18.4,23.9,18.4h132.4c4.6,0,8.3-3.7,8.3-8.3s-3.7-8.3-8.3-8.3h-132.4c-3.7,0-7-2.5-8-6.1l-3-11.3h124.3c15,0,28.1-10.1,32-24.6l18.4-69.2c1.5-5.8.3-11.9-3.3-16.7-3.7-4.8-9.2-7.5-15.2-7.5ZM174.8,215h33.5l4.6,34.2h-28.9l-9.2-34.2ZM197.6,299.9l-9.2-34.2h26.8l4.6,34.2h-22.2ZM259.9,299.9h-23.4l-4.6-34.2h28.1v34.2ZM259.9,249.2h-30.3l-4.6-34.2h35v34.2ZM300,299.9h-23.5v-34.2h28.1l-4.6,34.2ZM306.8,249.2h-30.3v-34.2h35l-4.6,34.2ZM342.2,287.7c-1.9,7.2-8.5,12.3-16,12.3h-9.6l4.6-34.2h26.8l-5.8,21.9ZM360.6,218.4l-8.2,30.8h-29l4.6-34.2h30c1.2,0,1.8.7,2.1,1.1h0c.3.4.8,1.2.5,2.4Z"/>
  </g>
  <g id="Browser">
    <path d="M57.7,82.2h85c4.3,0,7.7-3.5,7.7-7.7s-3.5-7.7-7.7-7.7H57.7c-4.3,0-7.7,3.5-7.7,7.7s3.5,7.7,7.7,7.7Z"/>
    <circle cx="375.4" cy="74.5" r="8.3" transform="translate(57.3 287.3) rotate(-45)"/>
    <circle cx="409.5" cy="74.5" r="8.3" transform="translate(67.3 311.4) rotate(-45)"/>
    <circle cx="443.5" cy="74.5" r="8.3" transform="translate(77.2 335.5) rotate(-45)"/>
    <path class="st1" d="M474.7,95.8v-14.2c0-15.7-12.8-28.5-28.6-28.5H55.5c-15.8,0-28.6,12.8-28.6,28.5v14.2h447.8Z"/>
    <path d="M491,77c0-.8-.2-1.5-.3-2.2-.3-2.2-.9-4.4-1.5-6.5-.4-1.4-.9-2.8-1.5-4.1-.6-1.3-1.2-2.7-1.9-3.9-.7-1.3-1.4-2.5-2.3-3.7-.6-.9-1.3-1.8-2-2.7-1.1-1.4-2.2-2.7-3.4-3.9,0,0,0,0,0,0-1.3-1.3-2.7-2.5-4.2-3.7-2-1.5-4-2.9-6.2-4.1-.6-.3-1.3-.7-1.9-1-1.3-.6-2.7-1.2-4-1.7-4.8-1.8-10-2.7-15.5-2.7H55.5c-5.4,0-10.6,1-15.5,2.7-1.4.5-2.7,1.1-4,1.7-.7.3-1.3.6-1.9,1-2.2,1.2-4.3,2.6-6.2,4.1-2.8,2.2-5.4,4.8-7.7,7.6-.7.9-1.4,1.8-2,2.7-.8,1.2-1.6,2.4-2.3,3.7-.7,1.3-1.3,2.6-1.9,3.9-.6,1.3-1.1,2.7-1.5,4.1-.7,2.1-1.2,4.3-1.5,6.5-.1.7-.2,1.5-.3,2.2-.2,1.5-.2,3-.2,4.6v322.6c0,24.8,20.2,45,45,45h390.6c24.8,0,45-20.2,45-45V81.6c0-1.6,0-3.1-.2-4.6ZM55.5,53.1h390.6c.5,0,1,0,1.5,0,11.2.6,20.7,7.6,24.8,17.4.2.4.4.9.5,1.3,1.1,3.1,1.7,6.3,1.7,9.8v14.2H27v-14.2c0-3.4.6-6.7,1.7-9.8.2-.4.3-.9.5-1.3,4.2-9.8,13.7-16.8,24.8-17.4.5,0,1,0,1.5,0ZM474.7,404.2c0,15.7-12.8,28.5-28.6,28.5H55.5c-15.8,0-28.6-12.8-28.6-28.5v-44.8h0V112.4h447.8v247h0v44.8Z"/>
  </g>
  <g id="Arrow">
    <path d="M516.4,420.7h0s-25.3-21.4-25.3-21.4l-16.4-13.8-44.6-37.6c-5.1-4.3-12-5.2-18.1-2.4-6,2.8-9.8,8.7-9.8,15.4h0s0,65.4,0,65.4h0v16.6h0v30.9c0,6.7,3.8,12.5,9.8,15.4,6,2.8,12.9,1.9,18-2.3l15.5-12.9,8.6,18.5c2.7,5.8,7.4,10.2,13.4,12.3,2.7,1,5.4,1.5,8.2,1.5s6.8-.7,10-2.2c5.8-2.7,10.1-7.5,12.3-13.4,2.2-6,1.9-12.5-.8-18.2l-8.6-18.5,19.8-3.5c6.5-1.2,11.7-5.9,13.4-12.3,1.7-6.4-.4-13.1-5.5-17.4ZM505.5,434.2l-30.3,5.4c-2.5.5-4.7,2-5.9,4.3-1.2,2.3-1.2,5-.2,7.3l13.1,28.3c.8,1.7.9,3.7.2,5.5-.7,1.8-2,3.3-3.8,4.1-1.8.8-3.8.9-5.6.2-1.8-.7-3.3-2-4.1-3.8l-13.1-28.2c-1.1-2.3-3.2-4-5.7-4.6-.6-.1-1.2-.2-1.8-.2-1.9,0-3.8.7-5.3,1.9l-24.5,19.4.7-113.3,86.3,72.8-.2.8Z"/>
    <path class="st0" d="M418.7,473.8l24.5-19.4c1.5-1.2,3.4-1.9,5.3-1.9s1.2,0,1.8.2c2.5.6,4.6,2.3,5.7,4.6l13.1,28.2c.8,1.8,2.3,3.1,4.1,3.8,1.8.7,3.8.6,5.6-.2,1.7-.8,3.1-2.3,3.8-4.1.7-1.8.6-3.8-.2-5.5l-13.1-28.3c-1.1-2.3-1-5,.2-7.3,1.2-2.3,3.4-3.9,5.9-4.3l30.3-5.4.2-.8-86.3-72.8-.7,113.3Z"/>
  </g>
</svg>